# Blender3D v249 OBJ File: environment.blend
# www.blender3d.org
v 0.000000 -0.000000 -1.000000
v 0.098017 -0.000000 -0.995185
v 0.195090 -0.000000 -0.980785
v 0.290285 -0.000000 -0.956940
v 0.382683 -0.000000 -0.923880
v 0.471397 -0.000000 -0.881921
v 0.555570 -0.000000 -0.831470
v 0.634393 -0.000000 -0.773010
v 0.707107 -0.000000 -0.707107
v 0.773010 0.000000 -0.634393
v 0.831470 0.000000 -0.555570
v 0.881921 0.000000 -0.471397
v 0.923880 0.000000 -0.382683
v 0.956940 0.000000 -0.290285
v 0.980785 0.000000 -0.195090
v 0.995185 0.000000 -0.098017
v 1.000000 0.000000 0.000000
v 0.995185 0.000000 0.098017
v 0.980785 0.000000 0.195091
v 0.956940 0.000000 0.290285
v 0.923879 0.000000 0.382684
v 0.881921 0.000000 0.471397
v 0.831469 0.000000 0.555571
v 0.773010 0.000000 0.634394
v 0.707106 0.000000 0.707107
v 0.634393 0.000000 0.773011
v 0.555570 0.000000 0.831470
v 0.471396 0.000000 0.881922
v 0.382683 0.000000 0.923880
v 0.290284 0.000000 0.956941
v 0.195090 0.000000 0.980785
v 0.098016 0.000000 0.995185
v -0.000001 0.000000 1.000000
v -0.098018 0.000000 0.995185
v -0.195091 0.000000 0.980785
v -0.290286 0.000000 0.956940
v -0.382684 0.000000 0.923879
v -0.471398 0.000000 0.881921
v -0.555571 0.000000 0.831469
v -0.634394 0.000000 0.773010
v -0.707108 0.000000 0.707106
v -0.773011 0.000000 0.634393
v -0.831470 0.000000 0.555570
v -0.881921 0.000000 0.471396
v -0.923880 0.000000 0.382683
v -0.956940 0.000000 0.290285
v -0.980785 0.000000 0.195090
v -0.995185 0.000000 0.098017
v -1.000000 0.000000 0.000000
v -0.995185 0.000000 -0.098016
v -0.980785 0.000000 -0.195089
v -0.956941 0.000000 -0.290284
v -0.923880 0.000000 -0.382682
v -0.881922 0.000000 -0.471395
v -0.831470 0.000000 -0.555569
v -0.773012 0.000000 -0.634392
v -0.707108 -0.000000 -0.707105
v -0.634395 -0.000000 -0.773009
v -0.555572 -0.000000 -0.831468
v -0.471399 -0.000000 -0.881920
v -0.382686 -0.000000 -0.923878
v -0.290288 -0.000000 -0.956939
v -0.195093 -0.000000 -0.980785
v -0.098021 -0.000000 -0.995184
v -0.000004 1.000000 -1.000000
v 0.098013 1.000000 -0.995185
v 0.195086 1.000000 -0.980786
v 0.290281 1.000000 -0.956942
v 0.382679 1.000000 -0.923881
v 0.471393 1.000000 -0.881923
v 0.555566 1.000000 -0.831472
v 0.634389 1.000000 -0.773014
v 0.707103 1.000000 -0.707110
v 0.773007 1.000000 -0.634398
v 0.831466 1.000000 -0.555575
v 0.881918 1.000000 -0.471402
v 0.923877 1.000000 -0.382689
v 0.956939 1.000000 -0.290291
v 0.980784 1.000000 -0.195097
v 0.995184 1.000000 -0.098024
v 1.000000 1.000000 -0.000007
v 0.995185 1.000000 0.098010
v 0.980787 1.000000 0.195084
v 0.956942 1.000000 0.290278
v 0.923882 1.000000 0.382678
v 0.881924 1.000000 0.471391
v 0.831473 1.000000 0.555566
v 0.773014 1.000000 0.634389
v 0.707110 1.000000 0.707103
v 0.634397 1.000000 0.773007
v 0.555574 1.000000 0.831467
v 0.471400 1.000000 0.881919
v 0.382687 1.000000 0.923878
v 0.290288 1.000000 0.956939
v 0.195094 1.000000 0.980785
v 0.098020 1.000000 0.995184
v 0.000003 1.000000 1.000000
v -0.098015 1.000000 0.995185
v -0.195088 1.000000 0.980786
v -0.290283 1.000000 0.956941
v -0.382682 1.000000 0.923880
v -0.471395 1.000000 0.881922
v -0.555569 1.000000 0.831470
v -0.634393 1.000000 0.773011
v -0.707106 1.000000 0.707107
v -0.773010 1.000000 0.634394
v -0.831470 1.000000 0.555570
v -0.881921 1.000000 0.471396
v -0.923880 1.000000 0.382683
v -0.956941 1.000000 0.290284
v -0.980785 1.000000 0.195089
v -0.995185 1.000000 0.098016
v -1.000000 1.000000 -0.000002
v -0.995185 1.000000 -0.098019
v -0.980785 1.000000 -0.195092
v -0.956940 1.000000 -0.290287
v -0.923878 1.000000 -0.382686
v -0.881920 1.000000 -0.471399
v -0.831468 1.000000 -0.555573
v -0.773008 1.000000 -0.634396
v -0.707104 1.000000 -0.707110
v -0.634390 1.000000 -0.773013
v -0.555567 1.000000 -0.831472
v -0.471393 1.000000 -0.881923
v -0.382679 1.000000 -0.923881
v -0.290280 1.000000 -0.956942
v -0.195085 1.000000 -0.980786
v -0.098011 1.000000 -0.995185
v -0.000004 1.000000 -1.022513
v 0.100220 1.000000 -1.017590
v 0.199478 1.000000 -1.002867
v 0.296816 1.000000 -0.978485
v 0.391295 1.000000 -0.944681
v 0.482005 1.000000 -0.901779
v 0.568074 1.000000 -0.850191
v 0.648672 1.000000 -0.790417
v 0.723022 1.000000 -0.723030
v 0.790410 1.000000 -0.648680
v 0.850186 1.000000 -0.568083
v 0.901773 1.000000 -0.482015
v 0.944677 1.000000 -0.391305
v 0.978482 1.000000 -0.296826
v 1.002865 1.000000 -0.199489
v 1.017589 1.000000 -0.100231
v 1.022513 1.000000 -0.000007
v 1.017591 1.000000 0.100217
v 1.002867 1.000000 0.199476
v 0.978486 1.000000 0.296814
v 0.944682 1.000000 0.391293
v 0.901779 1.000000 0.482004
v 0.850192 1.000000 0.568073
v 0.790417 1.000000 0.648671
v 0.723030 1.000000 0.723023
v 0.648679 1.000000 0.790410
v 0.568082 1.000000 0.850186
v 0.482013 1.000000 0.901774
v 0.391303 1.000000 0.944678
v 0.296824 1.000000 0.978483
v 0.199486 1.000000 1.002866
v 0.100227 1.000000 1.017590
v 0.000003 1.000000 1.022513
v -0.100221 1.000000 1.017590
v -0.199480 1.000000 1.002867
v -0.296818 1.000000 0.978485
v -0.391297 1.000000 0.944680
v -0.482008 1.000000 0.901777
v -0.568077 1.000000 0.850190
v -0.648675 1.000000 0.790414
v -0.723026 1.000000 0.723027
v -0.790413 1.000000 0.648676
v -0.850189 1.000000 0.568078
v -0.901776 1.000000 0.482009
v -0.944679 1.000000 0.391298
v -0.978485 1.000000 0.296819
v -1.002866 1.000000 0.199481
v -1.017590 1.000000 0.100222
v -1.022513 1.000000 -0.000002
v -1.017589 1.000000 -0.100226
v -1.002866 1.000000 -0.199485
v -0.978484 1.000000 -0.296822
v -0.944678 1.000000 -0.391302
v -0.901775 1.000000 -0.482012
v -0.850187 1.000000 -0.568081
v -0.790411 1.000000 -0.648678
v -0.723023 1.000000 -0.723029
v -0.648672 1.000000 -0.790416
v -0.568074 1.000000 -0.850191
v -0.482005 1.000000 -0.901779
v -0.391294 1.000000 -0.944681
v -0.296815 1.000000 -0.978486
v -0.199477 1.000000 -1.002867
v -0.100218 1.000000 -1.017590
vt 0.390354 1.001029
vt 0.405813 1.001029
vt 0.404752 0.002862
vt 0.389245 0.002862
vt 0.374864 1.001029
vt 0.373732 0.002862
vt 0.359362 1.001029
vt 0.358212 0.002862
vt 0.343850 1.001029
vt 0.342686 0.002862
vt 0.328329 1.001029
vt 0.327151 0.002862
vt 0.312801 1.001029
vt 0.311608 0.002862
vt 0.297264 1.001029
vt 0.296058 0.002862
vt 0.281719 1.001029
vt 0.280499 0.002862
vt 0.266167 1.001029
vt 0.264933 0.002862
vt 0.250608 1.001029
vt 0.249360 0.002862
vt 0.235042 1.001029
vt 0.233780 0.002862
vt 0.219469 1.001029
vt 0.218192 0.002862
vt 0.203889 1.001029
vt 0.202599 0.002862
vt 0.188303 1.001029
vt 0.186998 0.002862
vt 0.172710 1.001029
vt 0.171392 0.002862
vt 0.157112 1.001029
vt 0.155780 0.002862
vt 0.141509 1.001029
vt 0.140163 0.002862
vt 0.125901 1.001029
vt 0.124544 0.002862
vt 0.110290 1.001029
vt 0.108932 0.002862
vt 0.094622 1.001029
vt 0.093285 0.002862
vt 0.078930 1.001029
vt 0.077612 0.002862
vt 0.063257 1.001029
vt 0.061933 0.002862
vt 0.047586 1.001029
vt 0.046244 0.002862
vt 0.031905 1.001029
vt 0.030526 0.002862
vt 0.016193 1.001029
vt 0.014717 0.002862
vt 0.000707 1.001029
vt -0.000977 0.002862
vt 0.983890 1.001029
vt 0.999227 1.001029
vt 0.999023 0.002862
vt 0.983466 0.002862
vt 0.968311 1.001029
vt 0.967828 0.002862
vt 0.952636 1.001029
vt 0.952125 0.002862
vt 0.936906 1.001029
vt 0.936373 0.002862
vt 0.921079 1.001029
vt 0.920520 0.002862
vt 0.905322 1.001029
vt 0.904734 0.002862
vt 0.889545 1.001029
vt 0.888950 0.002862
vt 0.873713 1.001029
vt 0.873082 0.002862
vt 0.857953 1.001029
vt 0.857302 0.002862
vt 0.842219 1.001029
vt 0.841553 0.002862
vt 0.826497 1.001029
vt 0.825817 0.002862
vt 0.810785 1.001029
vt 0.810090 0.002862
vt 0.795080 1.001029
vt 0.794371 0.002862
vt 0.779383 1.001029
vt 0.778660 0.002862
vt 0.763693 1.001029
vt 0.762956 0.002862
vt 0.748012 1.001029
vt 0.747261 0.002862
vt 0.732340 1.001029
vt 0.731574 0.002862
vt 0.716676 1.001029
vt 0.715896 0.002862
vt 0.701020 1.001029
vt 0.700227 0.002862
vt 0.685375 1.001029
vt 0.684567 0.002862
vt 0.669738 1.001029
vt 0.668916 0.002862
vt 0.654111 1.001029
vt 0.653275 0.002862
vt 0.638496 1.001029
vt 0.637646 0.002862
vt 0.622891 1.001029
vt 0.622028 0.002862
vt 0.607297 1.001029
vt 0.606419 0.002862
vt 0.591713 1.001029
vt 0.590822 0.002862
vt 0.576143 1.001029
vt 0.575238 0.002862
vt 0.560589 1.001029
vt 0.559671 0.002862
vt 0.545066 1.001029
vt 0.544136 0.002862
vt 0.529620 1.001029
vt 0.528691 0.002862
vt 0.514083 1.001029
vt 0.513144 0.002862
vt 0.498469 1.001029
vt 0.497499 0.002862
vt 0.482936 1.001029
vt 0.481950 0.002862
vt 0.467460 1.001029
vt 0.466464 0.002862
vt 0.452091 1.001029
vt 0.451101 0.002862
vt 0.436726 1.001029
vt 0.435739 0.002862
vt 0.421262 1.001029
vt 0.420253 0.002862
vt 0.390739 0.003846
vt 0.406243 0.003846
vt 0.375226 0.003846
vt 0.359705 0.003846
vt 0.344175 0.003846
vt 0.328637 0.003846
vt 0.313092 0.003846
vt 0.297538 0.003846
vt 0.281978 0.003846
vt 0.266410 0.003846
vt 0.250836 0.003846
vt 0.235254 0.003846
vt 0.219667 0.003846
vt 0.204073 0.003846
vt 0.188473 0.003846
vt 0.172867 0.003846
vt 0.157256 0.003846
vt 0.141640 0.003846
vt 0.126018 0.003846
vt 0.110390 0.003846
vt 0.094829 0.003846
vt 0.079207 0.003846
vt 0.063517 0.003846
vt 0.047831 0.003846
vt 0.032150 0.003846
vt 0.016476 0.003846
vt 0.000816 0.003846
vt 0.985212 0.003846
vt 1.001206 0.003846
vt 0.969501 0.003846
vt 0.953778 0.003846
vt 0.938044 0.003846
vt 0.922301 0.003846
vt 0.906555 0.003846
vt 0.890806 0.003846
vt 0.875058 0.003846
vt 0.859313 0.003846
vt 0.843574 0.003846
vt 0.827842 0.003846
vt 0.812116 0.003846
vt 0.796397 0.003846
vt 0.780685 0.003846
vt 0.764980 0.003846
vt 0.749284 0.003846
vt 0.733595 0.003846
vt 0.717914 0.003846
vt 0.702242 0.003846
vt 0.686580 0.003846
vt 0.670926 0.003846
vt 0.655281 0.003846
vt 0.639646 0.003846
vt 0.624021 0.003846
vt 0.608406 0.003846
vt 0.592802 0.003846
vt 0.577207 0.003846
vt 0.561624 0.003846
vt 0.546051 0.003846
vt 0.530488 0.003846
vt 0.514930 0.003846
vt 0.499379 0.003846
vt 0.483839 0.003846
vt 0.468309 0.003846
vt 0.452789 0.003846
vt 0.437274 0.003846
vt 0.421758 0.003846
vn 0.070925 0.687918 0.722282
vn 0.000000 0.689779 0.723991
vn 0.000000 1.000000 0.000000
vn 0.141240 0.689718 0.710135
vn 0.210486 0.687918 0.694571
vn 0.277566 0.687918 0.670583
vn 0.341960 0.687918 0.640156
vn 0.403058 0.687918 0.603565
vn 0.460280 0.687918 0.561144
vn 0.513047 0.687918 0.513321
vn 0.560900 0.687918 0.460555
vn 0.602008 0.689718 0.402264
vn 0.639973 0.687918 0.342296
vn 0.668935 0.689718 0.277078
vn 0.694479 0.687918 0.210852
vn 0.711783 0.687918 0.141758
vn 0.720573 0.689718 0.070956
vn 0.725761 0.687918 0.000183
vn 0.722282 0.687918 -0.070925
vn 0.711875 0.687918 -0.141392
vn 0.694571 0.687918 -0.210486
vn 0.672170 0.686026 -0.278420
vn 0.639973 0.687918 -0.342296
vn 0.603351 0.687918 -0.403363
vn 0.560900 0.687918 -0.460555
vn 0.513047 0.687918 -0.513321
vn 0.460280 0.687918 -0.561144
vn 0.402234 0.689718 -0.602039
vn 0.341960 0.687918 -0.640156
vn 0.277566 0.687918 -0.670583
vn 0.210486 0.687918 -0.694571
vn 0.141392 0.687918 -0.711875
vn 0.070925 0.687918 -0.722282
vn -0.000183 0.687918 -0.725761
vn -0.071322 0.687918 -0.722251
vn -0.141240 0.689718 -0.710135
vn -0.210852 0.687918 -0.694479
vn -0.277902 0.687918 -0.670461
vn -0.342296 0.687918 -0.639973
vn -0.401196 0.691702 -0.600452
vn -0.461776 0.685903 -0.562365
vn -0.513321 0.687918 -0.513047
vn -0.561144 0.687918 -0.460280
vn -0.603565 0.687918 -0.403058
vn -0.638569 0.689718 -0.341288
vn -0.668935 0.689718 -0.277047
vn -0.692862 0.689718 -0.210150
vn -0.711875 0.687918 -0.141392
vn -0.720420 0.689901 -0.070742
vn -0.727653 0.685903 0.000183
vn -0.720389 0.689901 0.071139
vn -0.711783 0.687918 0.141758
vn -0.696280 0.685903 0.211402
vn -0.670461 0.687918 0.277902
vn -0.639973 0.687918 0.342296
vn -0.602008 0.689718 0.402264
vn -0.560900 0.687918 0.460555
vn -0.513047 0.687918 0.513321
vn -0.460280 0.687918 0.561144
vn -0.403058 0.687918 0.603565
vn -0.341960 0.687918 0.640156
vn -0.277566 0.687918 0.670583
vn -0.210486 0.687918 0.694571
vn -0.141392 0.687918 0.711875
vn -0.070925 0.687918 0.722282
vn 0.098148 0.000000 0.995148
vn 0.000000 0.000000 1.000000
vn 0.198462 0.000000 0.980102
vn 0.293558 0.000000 0.955931
vn 0.385846 0.000000 0.922544
vn 0.474410 0.000000 0.880276
vn 0.558428 0.000000 0.829524
vn 0.637043 0.000000 0.770806
vn 0.709525 0.000000 0.704642
vn 0.773095 0.000000 0.634266
vn 0.833369 0.000000 0.552690
vn 0.881985 0.000000 0.471267
vn 0.925169 0.000000 0.379467
vn 0.957915 0.000000 0.286966
vn 0.980804 0.000000 0.194922
vn 0.995514 0.000000 0.094577
vn 0.999969 0.000000 -0.003418
vn 0.994812 0.000000 -0.101444
vn 0.980102 0.000000 -0.198462
vn 0.955931 0.000000 -0.293558
vn 0.923856 0.000000 -0.382672
vn 0.883541 0.000000 -0.468337
vn 0.833369 0.000000 -0.552690
vn 0.775170 0.000000 -0.631703
vn 0.709525 0.000000 -0.704642
vn 0.637043 0.000000 -0.770806
vn 0.558428 0.000000 -0.829524
vn 0.471511 0.000000 -0.881832
vn 0.385846 0.000000 -0.922544
vn 0.293558 0.000000 -0.955931
vn 0.198462 0.000000 -0.980102
vn 0.101444 0.000000 -0.994812
vn 0.003418 0.000000 -0.999969
vn -0.094577 0.000000 -0.995514
vn -0.191687 0.000000 -0.981445
vn -0.290139 0.000000 -0.956969
vn -0.379467 0.000000 -0.925169
vn -0.468337 0.000000 -0.883511
vn -0.552690 0.000000 -0.833369
vn -0.634266 0.000000 -0.773095
vn -0.704642 0.000000 -0.709525
vn -0.770806 0.000000 -0.637043
vn -0.829524 0.000000 -0.558428
vn -0.880276 0.000000 -0.474410
vn -0.923795 0.000000 -0.382794
vn -0.956877 0.000000 -0.290414
vn -0.980743 0.000000 -0.195227
vn -0.994812 0.000000 -0.101444
vn -0.999969 0.000000 -0.003418
vn -0.995514 0.000000 0.094577
vn -0.981445 0.000000 0.191687
vn -0.957915 0.000000 0.286966
vn -0.925169 0.000000 0.379498
vn -0.883511 0.000000 0.468337
vn -0.833369 0.000000 0.552690
vn -0.773095 0.000000 0.634266
vn -0.709525 0.000000 0.704642
vn -0.637043 0.000000 0.770806
vn -0.558428 0.000000 0.829524
vn -0.474410 0.000000 0.880276
vn -0.385846 0.000000 0.922544
vn -0.293558 0.000000 0.955931
vn -0.198462 0.000000 0.980102
vn -0.101444 0.000000 0.994812
usemtl WallMaterial_Untitled
s 1
f 128/1/1 65/2/2 129/3/3
f 128/1/1 129/3/3 192/4/3
f 127/5/4 128/1/1 192/4/3
f 127/5/4 192/4/3 191/6/3
f 126/7/5 127/5/4 191/6/3
f 126/7/5 191/6/3 190/8/3
f 125/9/6 126/7/5 190/8/3
f 125/9/6 190/8/3 189/10/3
f 124/11/7 125/9/6 189/10/3
f 124/11/7 189/10/3 188/12/3
f 123/13/8 124/11/7 188/12/3
f 123/13/8 188/12/3 187/14/3
f 122/15/9 123/13/8 187/14/3
f 122/15/9 187/14/3 186/16/3
f 121/17/10 122/15/9 186/16/3
f 121/17/10 186/16/3 185/18/3
f 120/19/11 121/17/10 185/18/3
f 120/19/11 185/18/3 184/20/3
f 119/21/12 120/19/11 184/20/3
f 119/21/12 184/20/3 183/22/3
f 118/23/13 119/21/12 183/22/3
f 118/23/13 183/22/3 182/24/3
f 117/25/14 118/23/13 182/24/3
f 117/25/14 182/24/3 181/26/3
f 116/27/15 117/25/14 181/26/3
f 116/27/15 181/26/3 180/28/3
f 115/29/16 116/27/15 180/28/3
f 115/29/16 180/28/3 179/30/3
f 114/31/17 115/29/16 179/30/3
f 114/31/17 179/30/3 178/32/3
f 113/33/18 114/31/17 178/32/3
f 113/33/18 178/32/3 177/34/3
f 112/35/19 113/33/18 177/34/3
f 112/35/19 177/34/3 176/36/3
f 111/37/20 112/35/19 176/36/3
f 111/37/20 176/36/3 175/38/3
f 110/39/21 111/37/20 175/38/3
f 110/39/21 175/38/3 174/40/3
f 109/41/22 110/39/21 174/40/3
f 109/41/22 174/40/3 173/42/3
f 108/43/23 109/41/22 173/42/3
f 108/43/23 173/42/3 172/44/3
f 107/45/24 108/43/23 172/44/3
f 107/45/24 172/44/3 171/46/3
f 106/47/25 107/45/24 171/46/3
f 106/47/25 171/46/3 170/48/3
f 105/49/26 106/47/25 170/48/3
f 105/49/26 170/48/3 169/50/3
f 104/51/27 105/49/26 169/50/3
f 104/51/27 169/50/3 168/52/3
f 103/53/28 104/51/27 168/52/3
f 103/53/28 168/52/3 167/54/3
f 102/55/29 103/56/28 167/57/3
f 102/55/29 167/57/3 166/58/3
f 101/59/30 102/55/29 166/58/3
f 101/59/30 166/58/3 165/60/3
f 100/61/31 101/59/30 165/60/3
f 100/61/31 165/60/3 164/62/3
f 99/63/32 100/61/31 164/62/3
f 99/63/32 164/62/3 163/64/3
f 98/65/33 99/63/32 163/64/3
f 98/65/33 163/64/3 162/66/3
f 97/67/34 98/65/33 162/66/3
f 97/67/34 162/66/3 161/68/3
f 96/69/35 97/67/34 161/68/3
f 96/69/35 161/68/3 160/70/3
f 95/71/36 96/69/35 160/70/3
f 95/71/36 160/70/3 159/72/3
f 94/73/37 95/71/36 159/72/3
f 94/73/37 159/72/3 158/74/3
f 93/75/38 94/73/37 158/74/3
f 93/75/38 158/74/3 157/76/3
f 92/77/39 93/75/38 157/76/3
f 92/77/39 157/76/3 156/78/3
f 91/79/40 92/77/39 156/78/3
f 91/79/40 156/78/3 155/80/3
f 90/81/41 91/79/40 154/82/3
f 91/79/40 155/80/3 154/82/3
f 89/83/42 90/81/41 154/82/3
f 89/83/42 154/82/3 153/84/3
f 88/85/43 89/83/42 153/84/3
f 88/85/43 153/84/3 152/86/3
f 87/87/44 88/85/43 152/86/3
f 87/87/44 152/86/3 151/88/3
f 86/89/45 87/87/44 151/88/3
f 86/89/45 151/88/3 150/90/3
f 85/91/46 86/89/45 150/90/3
f 85/91/46 150/90/3 149/92/3
f 84/93/47 85/91/46 149/92/3
f 84/93/47 149/92/3 148/94/3
f 83/95/48 84/93/47 148/94/3
f 83/95/48 148/94/3 147/96/3
f 82/97/49 83/95/48 147/96/3
f 82/97/49 147/96/3 146/98/3
f 81/99/50 82/97/49 145/100/3
f 82/97/49 146/98/3 145/100/3
f 80/101/51 81/99/50 145/100/3
f 80/101/51 145/100/3 144/102/3
f 79/103/52 80/101/51 143/104/3
f 80/101/51 144/102/3 143/104/3
f 78/105/53 79/103/52 142/106/3
f 79/103/52 143/104/3 142/106/3
f 77/107/54 78/105/53 142/106/3
f 77/107/54 142/106/3 141/108/3
f 76/109/55 77/107/54 141/108/3
f 76/109/55 141/108/3 140/110/3
f 75/111/56 76/109/55 140/110/3
f 75/111/56 140/110/3 139/112/3
f 74/113/57 75/111/56 139/112/3
f 74/113/57 139/112/3 138/114/3
f 73/115/58 74/113/57 138/114/3
f 73/115/58 138/114/3 137/116/3
f 72/117/59 73/115/58 137/116/3
f 72/117/59 137/116/3 136/118/3
f 71/119/60 72/117/59 136/118/3
f 71/119/60 136/118/3 135/120/3
f 70/121/61 71/119/60 135/120/3
f 70/121/61 135/120/3 134/122/3
f 69/123/62 70/121/61 134/122/3
f 69/123/62 134/122/3 133/124/3
f 68/125/63 69/123/62 133/124/3
f 68/125/63 133/124/3 132/126/3
f 67/127/64 68/125/63 132/126/3
f 67/127/64 132/126/3 131/128/3
f 66/129/65 67/127/64 131/128/3
f 66/129/65 131/128/3 130/130/3
f 65/2/2 66/129/65 130/130/3
f 65/2/2 130/130/3 129/3/3
f 64/131/66 1/132/67 128/1/1
f 1/132/67 65/2/2 128/1/1
f 63/133/68 64/131/66 127/5/4
f 64/131/66 128/1/1 127/5/4
f 62/134/69 63/133/68 126/7/5
f 63/133/68 127/5/4 126/7/5
f 61/135/70 62/134/69 125/9/6
f 62/134/69 126/7/5 125/9/6
f 60/136/71 61/135/70 124/11/7
f 61/135/70 125/9/6 124/11/7
f 59/137/72 60/136/71 123/13/8
f 60/136/71 124/11/7 123/13/8
f 58/138/73 59/137/72 122/15/9
f 59/137/72 123/13/8 122/15/9
f 57/139/74 58/138/73 121/17/10
f 58/138/73 122/15/9 121/17/10
f 56/140/75 57/139/74 120/19/11
f 57/139/74 121/17/10 120/19/11
f 55/141/76 56/140/75 119/21/12
f 56/140/75 120/19/11 119/21/12
f 54/142/77 55/141/76 118/23/13
f 55/141/76 119/21/12 118/23/13
f 53/143/78 54/142/77 117/25/14
f 54/142/77 118/23/13 117/25/14
f 52/144/79 53/143/78 116/27/15
f 53/143/78 117/25/14 116/27/15
f 51/145/80 52/144/79 115/29/16
f 52/144/79 116/27/15 115/29/16
f 50/146/81 51/145/80 114/31/17
f 51/145/80 115/29/16 114/31/17
f 49/147/82 50/146/81 113/33/18
f 50/146/81 114/31/17 113/33/18
f 48/148/83 49/147/82 112/35/19
f 49/147/82 113/33/18 112/35/19
f 47/149/84 48/148/83 111/37/20
f 48/148/83 112/35/19 111/37/20
f 46/150/85 47/149/84 110/39/21
f 47/149/84 111/37/20 110/39/21
f 45/151/86 46/150/85 109/41/22
f 46/150/85 110/39/21 109/41/22
f 44/152/87 45/151/86 109/41/22
f 44/152/87 109/41/22 108/43/23
f 43/153/88 44/152/87 108/43/23
f 43/153/88 108/43/23 107/45/24
f 42/154/89 43/153/88 107/45/24
f 42/154/89 107/45/24 106/47/25
f 41/155/90 42/154/89 106/47/25
f 41/155/90 106/47/25 105/49/26
f 40/156/91 41/155/90 105/49/26
f 40/156/91 105/49/26 104/51/27
f 39/157/92 40/156/91 104/51/27
f 39/157/92 104/51/27 103/53/28
f 38/158/93 39/159/92 103/56/28
f 38/158/93 103/56/28 102/55/29
f 37/160/94 38/158/93 102/55/29
f 37/160/94 102/55/29 101/59/30
f 36/161/95 37/160/94 101/59/30
f 36/161/95 101/59/30 100/61/31
f 35/162/96 36/161/95 100/61/31
f 35/162/96 100/61/31 99/63/32
f 34/163/97 35/162/96 99/63/32
f 34/163/97 99/63/32 98/65/33
f 33/164/98 34/163/97 98/65/33
f 33/164/98 98/65/33 97/67/34
f 32/165/99 33/164/98 97/67/34
f 32/165/99 97/67/34 96/69/35
f 31/166/100 32/165/99 96/69/35
f 31/166/100 96/69/35 95/71/36
f 30/167/101 31/166/100 95/71/36
f 30/167/101 95/71/36 94/73/37
f 29/168/102 30/167/101 94/73/37
f 29/168/102 94/73/37 93/75/38
f 28/169/103 29/168/102 93/75/38
f 28/169/103 93/75/38 92/77/39
f 27/170/104 28/169/103 92/77/39
f 27/170/104 92/77/39 91/79/40
f 26/171/105 27/170/104 91/79/40
f 26/171/105 91/79/40 90/81/41
f 25/172/106 26/171/105 90/81/41
f 25/172/106 90/81/41 89/83/42
f 24/173/107 25/172/106 89/83/42
f 24/173/107 89/83/42 88/85/43
f 23/174/108 24/173/107 88/85/43
f 23/174/108 88/85/43 87/87/44
f 22/175/109 23/174/108 87/87/44
f 22/175/109 87/87/44 86/89/45
f 21/176/110 22/175/109 86/89/45
f 21/176/110 86/89/45 85/91/46
f 20/177/111 21/176/110 85/91/46
f 20/177/111 85/91/46 84/93/47
f 19/178/112 20/177/111 84/93/47
f 19/178/112 84/93/47 83/95/48
f 18/179/113 19/178/112 83/95/48
f 18/179/113 83/95/48 82/97/49
f 17/180/114 18/179/113 82/97/49
f 17/180/114 82/97/49 81/99/50
f 16/181/115 17/180/114 81/99/50
f 16/181/115 81/99/50 80/101/51
f 15/182/116 16/181/115 80/101/51
f 15/182/116 80/101/51 79/103/52
f 14/183/117 15/182/116 79/103/52
f 14/183/117 79/103/52 78/105/53
f 13/184/118 14/183/117 78/105/53
f 13/184/118 78/105/53 77/107/54
f 12/185/119 13/184/118 77/107/54
f 12/185/119 77/107/54 76/109/55
f 11/186/120 12/185/119 76/109/55
f 11/186/120 76/109/55 75/111/56
f 10/187/121 11/186/120 75/111/56
f 10/187/121 75/111/56 74/113/57
f 9/188/122 10/187/121 74/113/57
f 9/188/122 74/113/57 73/115/58
f 8/189/123 9/188/122 73/115/58
f 8/189/123 73/115/58 72/117/59
f 7/190/124 8/189/123 72/117/59
f 7/190/124 72/117/59 71/119/60
f 6/191/125 7/190/124 71/119/60
f 6/191/125 71/119/60 70/121/61
f 5/192/126 6/191/125 70/121/61
f 5/192/126 70/121/61 69/123/62
f 4/193/127 5/192/126 69/123/62
f 4/193/127 69/123/62 68/125/63
f 3/194/128 4/193/127 68/125/63
f 3/194/128 68/125/63 67/127/64
f 2/195/129 3/194/128 67/127/64
f 2/195/129 67/127/64 66/129/65
f 1/132/67 2/195/129 66/129/65
f 1/132/67 66/129/65 65/2/2
